<svg xmlns="http://www.w3.org/2000/svg" viewBox="0 0 270.82 73.7"><defs><style>.cls-1{fill:#fff;}</style></defs><title>rcny-logo-outlines</title><g id="Layer_2" data-name="Layer 2"><g id="Layer_1-2" data-name="Layer 1"><g id="Layer_2-2" data-name="Layer 2"><g id="Layer_1-2-2" data-name="Layer 1-2"><path class="cls-1" d="M0,.71C.83.61,1.61.56,2.3.46S3.66.31,4.35.27L6.45.12c.73,0,1.56,0,2.44,0a30,30,0,0,1,5.87.59,15,15,0,0,1,5.13,2,11.33,11.33,0,0,1,3.66,3.91A12.36,12.36,0,0,1,25,12.77a11.72,11.72,0,0,1-.74,4.11,14.85,14.85,0,0,1-1.9,3.32,14.09,14.09,0,0,1-2.64,2.54,18.2,18.2,0,0,1-2.88,1.76l-.69.34L28.24,42.38a27.7,27.7,0,0,1-3.52.2,21.79,21.79,0,0,1-3.12-.2L8.31,23.08v-.19l.44-.1a26.44,26.44,0,0,0,3.32-1.12,13,13,0,0,0,3.22-1.81,9.34,9.34,0,0,0,2.45-2.74,7.12,7.12,0,0,0,1-3.86c0-2.78-.83-4.83-2.44-6.2a10,10,0,0,0-6.64-2c-.64,0-1.28,0-1.81,0L6,5.25V42.38a11.85,11.85,0,0,1-1.42.1c-.53.05-1,.05-1.46.05s-1,0-1.52-.05-1-.1-1.51-.15V.71Z"/><path class="cls-1" d="M33.66,12.68a11.63,11.63,0,0,1,1.47-.2c.54-.05,1-.05,1.37-.05s.93,0,1.46.05a11.63,11.63,0,0,1,1.47.2V29A16.2,16.2,0,0,0,40,33.54a6.66,6.66,0,0,0,1.56,2.88,5.18,5.18,0,0,0,2.54,1.47,11.9,11.9,0,0,0,3.47.39,17.28,17.28,0,0,0,5-.64v-25a10.79,10.79,0,0,1,1.42-.2c.54-.05,1-.05,1.42-.05s.87,0,1.41.05a10.79,10.79,0,0,1,1.42.2V41.45c-1.37.39-3,.74-4.84,1.13a34.08,34.08,0,0,1-5.86.49,28.42,28.42,0,0,1-5.38-.49,10.29,10.29,0,0,1-4.39-2,10.09,10.09,0,0,1-3-4.25,19.56,19.56,0,0,1-1.08-7.18Z"/><path class="cls-1" d="M66.69,37a19.13,19.13,0,0,0,7.18,1.37,10.7,10.7,0,0,0,2.54-.3,5.58,5.58,0,0,0,2.11-.88A4.56,4.56,0,0,0,80,35.79a3.25,3.25,0,0,0,.54-1.91,4.21,4.21,0,0,0-.44-1.9,4.31,4.31,0,0,0-1.17-1.28,9.47,9.47,0,0,0-1.71-.87c-.64-.25-1.32-.49-2.06-.74l-2-.73a14.16,14.16,0,0,1-5.37-3.13,6.44,6.44,0,0,1-1.66-4.69,7.56,7.56,0,0,1,2.83-6.25C70.8,12.72,73.58,12,77.2,12a23,23,0,0,1,4.44.44,28.34,28.34,0,0,1,3.81,1A15.45,15.45,0,0,1,85,15.75a10.83,10.83,0,0,1-.78,2.15c-1-.34-2-.63-3-.88a16.42,16.42,0,0,0-3.81-.44,9.41,9.41,0,0,0-3.81.74A2.71,2.71,0,0,0,71.92,20a3.16,3.16,0,0,0,1.51,2.83,6.52,6.52,0,0,0,1.62.83,17.74,17.74,0,0,0,2,.68l2.54.88a26.55,26.55,0,0,1,2.64,1.08,7.67,7.67,0,0,1,2.15,1.61,8,8,0,0,1,1.47,2.3,9.59,9.59,0,0,1-.3,7.18,9.05,9.05,0,0,1-2.44,3,11.44,11.44,0,0,1-3.86,1.95,15.73,15.73,0,0,1-5,.64,26.8,26.8,0,0,1-4.84-.39,25.45,25.45,0,0,1-3.86-1A13,13,0,0,1,66,39.21,20.12,20.12,0,0,1,66.69,37Z"/><path class="cls-1" d="M91.56,37a20,20,0,0,0,7.18,1.37,10.7,10.7,0,0,0,2.54-.3,5.47,5.47,0,0,0,2.1-.88,4.5,4.5,0,0,0,1.47-1.41,3.25,3.25,0,0,0,.54-1.91A3.65,3.65,0,0,0,105,32a4.45,4.45,0,0,0-1.17-1.28,10.59,10.59,0,0,0-1.67-.87c-.63-.25-1.32-.49-2-.74l-2-.73a14.29,14.29,0,0,1-5.38-3.13A6.48,6.48,0,0,1,91,20.54a7.6,7.6,0,0,1,2.84-6.25c1.85-1.57,4.64-2.3,8.25-2.3a23.15,23.15,0,0,1,4.45.44,28.34,28.34,0,0,1,3.81,1,16.86,16.86,0,0,1-.44,2.29,10.83,10.83,0,0,1-.78,2.15c-1-.34-2-.63-3-.88a16.42,16.42,0,0,0-3.81-.44,9.41,9.41,0,0,0-3.81.74A2.63,2.63,0,0,0,96.84,20a3.72,3.72,0,0,0,.39,1.66,3.46,3.46,0,0,0,1.07,1.17,6.52,6.52,0,0,0,1.62.83,17.74,17.74,0,0,0,2,.68l2.54.88a26.55,26.55,0,0,1,2.64,1.08,7.67,7.67,0,0,1,2.15,1.61,7.79,7.79,0,0,1,1.46,2.3,9.59,9.59,0,0,1-.29,7.18,9.31,9.31,0,0,1-2.44,3,11.44,11.44,0,0,1-3.86,1.95A17.31,17.31,0,0,1,99,43a27.73,27.73,0,0,1-4.89-.39,27.12,27.12,0,0,1-3.86-1,13,13,0,0,1,.49-2.34A16.83,16.83,0,0,1,91.56,37Z"/><path class="cls-1" d="M120.14,17.22h-3.76a6.6,6.6,0,0,1-.19-1.08,9.16,9.16,0,0,1,0-1.17,9.16,9.16,0,0,1,0-1.17,7,7,0,0,1,.19-1.08h9.38V42.43a13.85,13.85,0,0,1-1.42.2c-.53,0-1,0-1.41,0s-.83,0-1.37,0a13.85,13.85,0,0,1-1.42-.2ZM118.87,6.13a7.47,7.47,0,0,1-.14-1.52c0-.53,0-1,0-1.46s0-.93,0-1.47a7.22,7.22,0,0,1,.14-1.46,14.44,14.44,0,0,1,1.61-.2c.59,0,1.08,0,1.52,0s.93,0,1.51.05l1.57.15a7.22,7.22,0,0,1,.14,1.46c0,.54,0,1,0,1.47s0,.93,0,1.46a7.82,7.82,0,0,1-.14,1.52,7.83,7.83,0,0,1-1.52.15c-.53,0-1,0-1.46,0s-1,0-1.57,0a16,16,0,0,1-1.66-.15Z"/><path class="cls-1" d="M150.78,22.79c0-2.3-.59-3.86-1.76-4.74a8.24,8.24,0,0,0-5-1.32,25.86,25.86,0,0,0-3.82.29,31,31,0,0,0-3.46.83,9.29,9.29,0,0,1-1.13-4.59,26,26,0,0,1,4.35-1,28,28,0,0,1,4.59-.35q5.79,0,8.8,2.64c2,1.76,3,4.55,3,8.41V41.55c-1.37.29-3,.64-4.94,1a34.24,34.24,0,0,1-5.91.49,22.87,22.87,0,0,1-5.13-.49,10.45,10.45,0,0,1-3.86-1.66,7.77,7.77,0,0,1-2.44-2.93,9.46,9.46,0,0,1-.88-4.35A8.85,8.85,0,0,1,137,26.06a13,13,0,0,1,4-1.85,17.21,17.21,0,0,1,4.74-.59c1.22,0,2.24.05,3,.1s1.47.14,2,.19Zm0,5.62c-.59-.1-1.32-.15-2.2-.25a21.38,21.38,0,0,0-2.25-.09,9.52,9.52,0,0,0-5.47,1.32,4.61,4.61,0,0,0-1.91,4,4.91,4.91,0,0,0,.64,2.74,4.85,4.85,0,0,0,1.61,1.51,5.35,5.35,0,0,0,2.1.64,18,18,0,0,0,2.2.09,24.51,24.51,0,0,0,2.74-.14,21.91,21.91,0,0,0,2.49-.44Z"/><path class="cls-1" d="M165,12.68c.44-.1.84-.15,1.23-.2a10,10,0,0,1,1.22-.05,9.16,9.16,0,0,1,1.17.05,11.49,11.49,0,0,1,1.17.2c.1.58.25,1.36.34,2.34.1.83.15,1.61.2,2.44a14.86,14.86,0,0,1,1.47-2,10.39,10.39,0,0,1,2.1-1.76,10.79,10.79,0,0,1,6-1.76c3.42,0,5.91,1,7.52,2.93s2.44,4.84,2.44,8.65V42.38a14.23,14.23,0,0,1-1.46.2c-.54.05-1,.05-1.47.05s-.88,0-1.41-.05a13.85,13.85,0,0,1-1.42-.2V25.13a11.53,11.53,0,0,0-1.27-6.05,4.43,4.43,0,0,0-4.06-2,8.18,8.18,0,0,0-3.07.59,6.58,6.58,0,0,0-2.54,1.81,8.61,8.61,0,0,0-1.76,3.17,15,15,0,0,0-.69,4.64V42.38a14.06,14.06,0,0,1-1.41.2c-.54.05-1,.05-1.42.05s-.93,0-1.47-.05a14.62,14.62,0,0,1-1.46-.2Z"/><path class="cls-1" d="M80.23,68.77a7.77,7.77,0,0,1,.92,3.46,15.77,15.77,0,0,1-6.05,1q-5.73,0-8.65-3.22c-2-2.15-2.93-5.09-2.93-8.75a15.49,15.49,0,0,1,.73-4.74,10.44,10.44,0,0,1,2.15-3.81,10.16,10.16,0,0,1,3.52-2.54,11.94,11.94,0,0,1,4.88-.93,18.5,18.5,0,0,1,3.32.25,13,13,0,0,1,2.74.73A11.83,11.83,0,0,1,80.67,52a7.79,7.79,0,0,1-.54,1.76,15.84,15.84,0,0,0-5-.79A6,6,0,0,0,70,55.28a9.88,9.88,0,0,0-1.71,6.06q0,4.32,1.9,6.3a7,7,0,0,0,5.28,2,13.93,13.93,0,0,0,2.49-.19A13.2,13.2,0,0,0,80.23,68.77Z"/><path class="cls-1" d="M89,62.36c0,2.5.73,4.35,2,5.53a7.67,7.67,0,0,0,5.47,1.75,17.38,17.38,0,0,0,6.06-1.12,10.78,10.78,0,0,1,.58,1.61,12.63,12.63,0,0,1,.3,1.91,15.45,15.45,0,0,1-3.23.93,21.13,21.13,0,0,1-3.91.29,14.29,14.29,0,0,1-5.37-.88A9.41,9.41,0,0,1,85,66.18a17.49,17.49,0,0,1-.68-4.79,17.67,17.67,0,0,1,.64-4.79,10.71,10.71,0,0,1,2-3.86,9.28,9.28,0,0,1,3.37-2.59,11,11,0,0,1,4.79-1,10.21,10.21,0,0,1,4.15.78,8,8,0,0,1,3,2.2,10,10,0,0,1,1.86,3.37,13.82,13.82,0,0,1,.63,4.26,11.92,11.92,0,0,1,0,1.31c0,.49,0,.88-.09,1.18Zm11.34-3.27A7.69,7.69,0,0,0,100,56.7a6.23,6.23,0,0,0-1-2,5.07,5.07,0,0,0-1.66-1.36,5,5,0,0,0-2.4-.49,5.25,5.25,0,0,0-4.2,1.66A8,8,0,0,0,89,59.09Z"/><path class="cls-1" d="M110.52,49.81l1-.15a6.5,6.5,0,0,1,1,0,5.5,5.5,0,0,1,.93,0l.93.15c.1.44.19,1.07.29,1.81a12.16,12.16,0,0,1,.15,1.9A11.83,11.83,0,0,1,115.89,52a9.94,9.94,0,0,1,1.57-1.37,8.53,8.53,0,0,1,4.59-1.37c2.59,0,4.54.73,5.81,2.25s1.91,3.71,1.86,6.64V72.72l-1.12.15a9.33,9.33,0,0,1-1.13,0,8,8,0,0,1-1.07,0,3.76,3.76,0,0,1-1.08-.15V59.43a9,9,0,0,0-1-4.69,3.41,3.41,0,0,0-3.12-1.51,6.84,6.84,0,0,0-2.4.44A5.4,5.4,0,0,0,116.87,55a7,7,0,0,0-1.37,2.44,11.37,11.37,0,0,0-.54,3.61V72.72l-1.07.15a8.48,8.48,0,0,1-1.08,0,9.59,9.59,0,0,1-1.12,0,4.31,4.31,0,0,1-1.12-.15Z"/><path class="cls-1" d="M137.24,53.33h-3.47l-.19-.64,7.67-8.6h.34v5.67h5.82a6.85,6.85,0,0,1,.19,1.71,5.56,5.56,0,0,1,0,.93l-.14.88h-5.77V63.73a29.58,29.58,0,0,0,.15,3,4.37,4.37,0,0,0,.53,1.71,1.69,1.69,0,0,0,1,.79,6.38,6.38,0,0,0,1.61.19,12.65,12.65,0,0,0,1.42-.1,8.78,8.78,0,0,0,1.22-.24,7.59,7.59,0,0,1,.39,1.86c0,.63,0,1.17,0,1.66-.63.14-1.27.24-1.9.34A14.91,14.91,0,0,1,144,73a7.53,7.53,0,0,1-5-1.57c-1.22-1-1.81-2.78-1.81-5.18V53.33Z"/><path class="cls-1" d="M155.71,62.36c0,2.5.73,4.35,2,5.53a7.67,7.67,0,0,0,5.47,1.75,17.38,17.38,0,0,0,6.06-1.12,10.78,10.78,0,0,1,.58,1.61A8.34,8.34,0,0,1,170,72a15.45,15.45,0,0,1-3.23.93,21.13,21.13,0,0,1-3.91.29,14.32,14.32,0,0,1-5.37-.88,9.34,9.34,0,0,1-5.81-6.2,17.58,17.58,0,0,1-.05-9.58,10.32,10.32,0,0,1,2-3.86A9.28,9.28,0,0,1,157,50.15a11,11,0,0,1,4.79-1A10.21,10.21,0,0,1,166,50a8.45,8.45,0,0,1,3,2.2,10,10,0,0,1,1.86,3.37,13.82,13.82,0,0,1,.63,4.26c0,.44,0,.87,0,1.31s-.05.88-.1,1.18Zm11.39-3.27a7.69,7.69,0,0,0-.35-2.39,6.23,6.23,0,0,0-1-2,5.07,5.07,0,0,0-1.66-1.36,5,5,0,0,0-2.4-.49,5.25,5.25,0,0,0-4.2,1.66,8,8,0,0,0-1.76,4.59Z"/><path class="cls-1" d="M177.26,49.81l.93-.15a5.38,5.38,0,0,1,.92,0,6.37,6.37,0,0,1,1,0,5.4,5.4,0,0,1,.88.15,11.33,11.33,0,0,1,.25,1.76,12.8,12.8,0,0,1,.14,1.85,10,10,0,0,1,2.49-2.63,6.63,6.63,0,0,1,4-1.13h.73c.2,0,.44.05.64.05,0,.29.1.59.15.83a6.86,6.86,0,0,1,0,.93,10.48,10.48,0,0,1,0,1.12c-.05.39-.1.74-.15,1.13a3.66,3.66,0,0,0-.73-.1h-.59a7.45,7.45,0,0,0-2.3.34,5.17,5.17,0,0,0-1.95,1.17,5.47,5.47,0,0,0-1.37,2.35,12.41,12.41,0,0,0-.54,3.81V72.72l-1.07.15a11.58,11.58,0,0,1-2.15,0,4,4,0,0,1-1.12-.15Z"/><path class="cls-1" d="M233.15,12.24V73.7h-13l-7.72-27.95v28H199.93V12.24h12.46l8.35,27.65V12.24Z"/><path class="cls-1" d="M270.82,12.24,260,51.42V73.7H246.2V51.47L235.74,12.29h13.68c2.15,12,3.32,20.08,3.62,24.23.83-6.55,2.2-14.61,4.15-24.23h13.63Z"/></g></g></g></g></svg>