<svg xmlns="http://www.w3.org/2000/svg" viewBox="0 0 345.02 80"><defs><style>.cls-1{opacity:0.5;}.cls-2{fill:#fff;}.cls-3{isolation:isolate;}</style></defs><title>yfny-logo-outlines</title><g id="Layer_2" data-name="Layer 2"><g id="Layer_1-2" data-name="Layer 1"><g class="cls-1"><polygon class="cls-2" points="20.2 0 39.4 11.2 58.8 0 78 11.1 39.4 33.5 0.7 10.8 20.2 0"/></g><polygon class="cls-2" points="20.2 0 39.4 11.2 58.8 0 78 11.1 39.4 33.5 0.7 10.8 20.2 0"/><g class="cls-1"><polygon class="cls-2" points="78.9 35.4 59.7 46.5 59.7 68.8 40.4 80 40.4 35.4 79.3 13.2 78.9 35.4"/></g><polygon class="cls-2" points="78.9 35.4 59.7 46.5 59.7 68.8 40.4 80 40.4 35.4 79.3 13.2 78.9 35.4"/><g class="cls-1"><polygon class="cls-2" points="19.3 68.6 19.3 46.3 0 35.1 0 12.8 38.7 35.2 38.3 80 19.3 68.6"/></g><polygon class="cls-2" points="19.3 68.6 19.3 46.3 0 35.1 0 12.8 38.7 35.2 38.3 80 19.3 68.6"/><g class="cls-1"><g class="cls-3"><path class="cls-2" d="M109.68,73.2h-4.43L93.42,53.74l-.11,0V73.2H88.87V46.55h4.44L105.14,66l.11,0V46.55h4.43Z"/><path class="cls-2" d="M131.62,61.21H120v8.42h13.52V73.2h-18V46.55h17.85v3.57H120v7.52h11.66Z"/><path class="cls-2" d="M143.69,66.1v0l0-.09L149,46.55h3.55L158,66.1l0,.12,0-.18,4.2-19.49h4.38L160.26,73.2h-4l-5.32-19.13h-.11L145.43,73.2h-4.06l-6.31-26.65h4.37Z"/><path class="cls-2" d="M188.42,59.51l6.44-13h5l-9.24,17.29V73.2h-4.43V63.61l-9.09-17.06h5Z"/><path class="cls-2" d="M223.17,62.27a11.27,11.27,0,0,1-3.06,8.1,10.52,10.52,0,0,1-8,3.21,10.15,10.15,0,0,1-7.79-3.21,11.39,11.39,0,0,1-3-8.1V57.48a11.38,11.38,0,0,1,3-8.09,10.09,10.09,0,0,1,7.77-3.22,10.51,10.51,0,0,1,8,3.22,11.23,11.23,0,0,1,3.07,8.09Zm-4.43-4.83A8.25,8.25,0,0,0,217,52a5.94,5.94,0,0,0-4.82-2.14A5.57,5.57,0,0,0,207.51,52a8.49,8.49,0,0,0-1.7,5.47v4.83a8.6,8.6,0,0,0,1.7,5.52,5.61,5.61,0,0,0,4.65,2.15A5.92,5.92,0,0,0,217,67.8a8.45,8.45,0,0,0,1.76-5.53Z"/><path class="cls-2" d="M232.43,62.14V73.2H228V46.55h9.85q4.47,0,6.9,2a7.06,7.06,0,0,1,2.43,5.75,5.89,5.89,0,0,1-1.07,3.56A7.35,7.35,0,0,1,243,60.26a5.55,5.55,0,0,1,3.24,2.33,7.51,7.51,0,0,1,1,4v2.22a9.13,9.13,0,0,0,.29,2.28,3.24,3.24,0,0,0,1,1.7v.43h-4.57a3,3,0,0,1-.95-1.91,15.82,15.82,0,0,1-.21-2.54V66.61a4.49,4.49,0,0,0-1.17-3.26,4.29,4.29,0,0,0-3.22-1.21Zm0-3.57h5.16a6.07,6.07,0,0,0,3.9-1,3.84,3.84,0,0,0,1.23-3.13,4.18,4.18,0,0,0-1.21-3.16,5.2,5.2,0,0,0-3.68-1.14h-5.4Z"/><path class="cls-2" d="M260.32,61.67h-3.07V73.2H252.8V46.55h4.45V57.84h2.54l8.36-11.29h5.27l-9.7,12.72L274.17,73.2h-5.43Z"/></g></g><g class="cls-3"><path class="cls-2" d="M109.68,73.2h-4.43L93.42,53.74l-.11,0V73.2H88.87V46.55h4.44L105.14,66l.11,0V46.55h4.43Z"/><path class="cls-2" d="M131.62,61.21H120v8.42h13.52V73.2h-18V46.55h17.85v3.57H120v7.52h11.66Z"/><path class="cls-2" d="M143.69,66.1v0l0-.09L149,46.55h3.55L158,66.1l0,.12,0-.18,4.2-19.49h4.38L160.26,73.2h-4l-5.32-19.13h-.11L145.43,73.2h-4.06l-6.31-26.65h4.37Z"/><path class="cls-2" d="M188.42,59.51l6.44-13h5l-9.24,17.29V73.2h-4.43V63.61l-9.09-17.06h5Z"/><path class="cls-2" d="M223.17,62.27a11.27,11.27,0,0,1-3.06,8.1,10.52,10.52,0,0,1-8,3.21,10.15,10.15,0,0,1-7.79-3.21,11.39,11.39,0,0,1-3-8.1V57.48a11.38,11.38,0,0,1,3-8.09,10.09,10.09,0,0,1,7.77-3.22,10.51,10.51,0,0,1,8,3.22,11.23,11.23,0,0,1,3.07,8.09Zm-4.43-4.83A8.25,8.25,0,0,0,217,52a5.94,5.94,0,0,0-4.82-2.14A5.57,5.57,0,0,0,207.51,52a8.49,8.49,0,0,0-1.7,5.47v4.83a8.6,8.6,0,0,0,1.7,5.52,5.61,5.61,0,0,0,4.65,2.15A5.92,5.92,0,0,0,217,67.8a8.45,8.45,0,0,0,1.76-5.53Z"/><path class="cls-2" d="M232.43,62.14V73.2H228V46.55h9.85q4.47,0,6.9,2a7.06,7.06,0,0,1,2.43,5.75,5.89,5.89,0,0,1-1.07,3.56A7.35,7.35,0,0,1,243,60.26a5.55,5.55,0,0,1,3.24,2.33,7.51,7.51,0,0,1,1,4v2.22a9.13,9.13,0,0,0,.29,2.28,3.24,3.24,0,0,0,1,1.7v.43h-4.57a3,3,0,0,1-.95-1.91,15.82,15.82,0,0,1-.21-2.54V66.61a4.49,4.49,0,0,0-1.17-3.26,4.29,4.29,0,0,0-3.22-1.21Zm0-3.57h5.16a6.07,6.07,0,0,0,3.9-1,3.84,3.84,0,0,0,1.23-3.13,4.18,4.18,0,0,0-1.21-3.16,5.2,5.2,0,0,0-3.68-1.14h-5.4Z"/><path class="cls-2" d="M260.32,61.67h-3.07V73.2H252.8V46.55h4.45V57.84h2.54l8.36-11.29h5.27l-9.7,12.72L274.17,73.2h-5.43Z"/></g><g class="cls-1"><g class="cls-3"><path class="cls-2" d="M97.56,26.45l6.44-13h5L99.72,30.78v9.36H95.29V30.55L86.2,13.49h5Z"/><path class="cls-2" d="M132.31,29.21a11.27,11.27,0,0,1-3.06,8.1,10.52,10.52,0,0,1-8,3.21,10.15,10.15,0,0,1-7.79-3.21,11.43,11.43,0,0,1-3-8.1V24.42a11.44,11.44,0,0,1,3-8.09,10.09,10.09,0,0,1,7.77-3.22,10.5,10.5,0,0,1,8,3.22,11.24,11.24,0,0,1,3.07,8.09Zm-4.43-4.83a8.25,8.25,0,0,0-1.78-5.47,5.94,5.94,0,0,0-4.82-2.14,5.59,5.59,0,0,0-4.63,2.14,8.49,8.49,0,0,0-1.7,5.47v4.83a8.58,8.58,0,0,0,1.7,5.52,5.61,5.61,0,0,0,4.65,2.15,5.92,5.92,0,0,0,4.82-2.14,8.39,8.39,0,0,0,1.76-5.53Z"/><path class="cls-2" d="M157.37,13.49V31.35a8.28,8.28,0,0,1-2.9,6.8,11.51,11.51,0,0,1-7.55,2.37,11.17,11.17,0,0,1-7.42-2.38,8.36,8.36,0,0,1-2.83-6.79V13.49h4.44V31.34a5.34,5.34,0,0,0,1.58,4.2A6.11,6.11,0,0,0,146.92,37a6.45,6.45,0,0,0,4.37-1.41,5.23,5.23,0,0,0,1.63-4.2V13.49Z"/><path class="cls-2" d="M180.88,17.06h-8V40.14h-4.45V17.06h-8V13.49h20.55Z"/><path class="cls-2" d="M205.17,40.14h-4.43V28.77H188.81V40.14h-4.45V13.49h4.45V25.2h11.93V13.49h4.43Z"/><path class="cls-2" d="M236.46,28.77H224.78V40.14h-4.44V13.49h18v3.57H224.78V25.2h11.68Z"/><path class="cls-2" d="M262.85,29.21a11.24,11.24,0,0,1-3.07,8.1,10.49,10.49,0,0,1-7.95,3.21A10.17,10.17,0,0,1,244,37.31a11.43,11.43,0,0,1-3-8.1V24.42a11.44,11.44,0,0,1,3-8.09,10.12,10.12,0,0,1,7.77-3.22,10.5,10.5,0,0,1,8,3.22,11.25,11.25,0,0,1,3.08,8.09Zm-4.43-4.83a8.26,8.26,0,0,0-1.79-5.47,5.93,5.93,0,0,0-4.82-2.14,5.6,5.6,0,0,0-4.63,2.14,8.55,8.55,0,0,0-1.7,5.47v4.83a8.64,8.64,0,0,0,1.7,5.52,5.63,5.63,0,0,0,4.65,2.15,5.9,5.9,0,0,0,4.82-2.14,8.4,8.4,0,0,0,1.77-5.53Z"/><path class="cls-2" d="M272.11,29.08V40.14h-4.45V13.49h9.85q4.46,0,6.89,2a7,7,0,0,1,2.44,5.75,6,6,0,0,1-1.07,3.56,7.42,7.42,0,0,1-3.12,2.39,5.55,5.55,0,0,1,3.24,2.33,7.51,7.51,0,0,1,1,4v2.22a8.69,8.69,0,0,0,.29,2.28,3.18,3.18,0,0,0,1,1.71v.42h-4.58a3,3,0,0,1-.94-1.91,15.82,15.82,0,0,1-.21-2.54V33.55a4.49,4.49,0,0,0-1.17-3.26A4.31,4.31,0,0,0,278,29.08Zm0-3.57h5.16a6.07,6.07,0,0,0,3.9-1,3.87,3.87,0,0,0,1.22-3.13,4.14,4.14,0,0,0-1.21-3.16,5.17,5.17,0,0,0-3.67-1.14h-5.4Z"/><path class="cls-2" d="M312.72,13.49V31.35a8.28,8.28,0,0,1-2.9,6.8,11.51,11.51,0,0,1-7.55,2.37,11.17,11.17,0,0,1-7.42-2.38A8.36,8.36,0,0,1,292,31.35V13.49h4.44V31.34a5.34,5.34,0,0,0,1.58,4.2A6.11,6.11,0,0,0,302.27,37a6.45,6.45,0,0,0,4.37-1.41,5.26,5.26,0,0,0,1.63-4.2V13.49Z"/><path class="cls-2" d="M323.79,13.49,331.45,34h.11l7.69-20.5H345V40.14h-4.45V31.06L341,19.51l-.11,0L333,40.14h-3l-7.87-20.59-.11,0,.44,11.49v9.08H318V13.49Z"/></g></g><g class="cls-3"><path class="cls-2" d="M97.56,26.45l6.44-13h5L99.72,30.78v9.36H95.29V30.55L86.2,13.49h5Z"/><path class="cls-2" d="M132.31,29.21a11.27,11.27,0,0,1-3.06,8.1,10.52,10.52,0,0,1-8,3.21,10.15,10.15,0,0,1-7.79-3.21,11.43,11.43,0,0,1-3-8.1V24.42a11.44,11.44,0,0,1,3-8.09,10.09,10.09,0,0,1,7.77-3.22,10.5,10.5,0,0,1,8,3.22,11.24,11.24,0,0,1,3.07,8.09Zm-4.43-4.83a8.25,8.25,0,0,0-1.78-5.47,5.94,5.94,0,0,0-4.82-2.14,5.59,5.59,0,0,0-4.63,2.14,8.49,8.49,0,0,0-1.7,5.47v4.83a8.58,8.58,0,0,0,1.7,5.52,5.61,5.61,0,0,0,4.65,2.15,5.92,5.92,0,0,0,4.82-2.14,8.39,8.39,0,0,0,1.76-5.53Z"/><path class="cls-2" d="M157.37,13.49V31.35a8.28,8.28,0,0,1-2.9,6.8,11.51,11.51,0,0,1-7.55,2.37,11.17,11.17,0,0,1-7.42-2.38,8.36,8.36,0,0,1-2.83-6.79V13.49h4.44V31.34a5.34,5.34,0,0,0,1.58,4.2A6.11,6.11,0,0,0,146.92,37a6.45,6.45,0,0,0,4.37-1.41,5.23,5.23,0,0,0,1.63-4.2V13.49Z"/><path class="cls-2" d="M180.88,17.06h-8V40.14h-4.45V17.06h-8V13.49h20.55Z"/><path class="cls-2" d="M205.17,40.14h-4.43V28.77H188.81V40.14h-4.45V13.49h4.45V25.2h11.93V13.49h4.43Z"/><path class="cls-2" d="M236.46,28.77H224.78V40.14h-4.44V13.49h18v3.57H224.78V25.2h11.68Z"/><path class="cls-2" d="M262.85,29.21a11.24,11.24,0,0,1-3.07,8.1,10.49,10.49,0,0,1-7.95,3.21A10.17,10.17,0,0,1,244,37.31a11.43,11.43,0,0,1-3-8.1V24.42a11.44,11.44,0,0,1,3-8.09,10.12,10.12,0,0,1,7.77-3.22,10.5,10.5,0,0,1,8,3.22,11.25,11.25,0,0,1,3.08,8.09Zm-4.43-4.83a8.26,8.26,0,0,0-1.79-5.47,5.93,5.93,0,0,0-4.82-2.14,5.6,5.6,0,0,0-4.63,2.14,8.55,8.55,0,0,0-1.7,5.47v4.83a8.64,8.64,0,0,0,1.7,5.52,5.63,5.63,0,0,0,4.65,2.15,5.9,5.9,0,0,0,4.82-2.14,8.4,8.4,0,0,0,1.77-5.53Z"/><path class="cls-2" d="M272.11,29.08V40.14h-4.45V13.49h9.85q4.46,0,6.89,2a7,7,0,0,1,2.44,5.75,6,6,0,0,1-1.07,3.56,7.42,7.42,0,0,1-3.12,2.39,5.55,5.55,0,0,1,3.24,2.33,7.51,7.51,0,0,1,1,4v2.22a8.69,8.69,0,0,0,.29,2.28,3.18,3.18,0,0,0,1,1.71v.42h-4.58a3,3,0,0,1-.94-1.91,15.82,15.82,0,0,1-.21-2.54V33.55a4.49,4.49,0,0,0-1.17-3.26A4.31,4.31,0,0,0,278,29.08Zm0-3.57h5.16a6.07,6.07,0,0,0,3.9-1,3.87,3.87,0,0,0,1.22-3.13,4.14,4.14,0,0,0-1.21-3.16,5.17,5.17,0,0,0-3.67-1.14h-5.4Z"/><path class="cls-2" d="M312.72,13.49V31.35a8.28,8.28,0,0,1-2.9,6.8,11.51,11.51,0,0,1-7.55,2.37,11.17,11.17,0,0,1-7.42-2.38A8.36,8.36,0,0,1,292,31.35V13.49h4.44V31.34a5.34,5.34,0,0,0,1.58,4.2A6.11,6.11,0,0,0,302.27,37a6.45,6.45,0,0,0,4.37-1.41,5.26,5.26,0,0,0,1.63-4.2V13.49Z"/><path class="cls-2" d="M323.79,13.49,331.45,34h.11l7.69-20.5H345V40.14h-4.45V31.06L341,19.51l-.11,0L333,40.14h-3l-7.87-20.59-.11,0,.44,11.49v9.08H318V13.49Z"/></g></g></g></svg>