<svg xmlns="http://www.w3.org/2000/svg" viewBox="0 0 257.88 191.25"><defs><style>.cls-1{opacity:0.5;}.cls-2{isolation:isolate;}.cls-3{fill:#fff;}</style></defs><title>yfny-2018-logo</title><g id="Layer_2" data-name="Layer 2"><g id="Layer_1-2" data-name="Layer 1"><g class="cls-1"><g class="cls-2"><path class="cls-3" d="M4.65,30.9h7.23c2.4,7.27,4.42,12.89,5.36,17.43.67-5.93,1.76-11.85,2.7-17.43h6.29L21.59,57.36H14.35C12.48,51.58,9.59,43.49,9,40.08c-.71,6-1.76,11.69-2.66,17.28H0Z"/><path class="cls-3" d="M30.32,30.9h18l-.9,5.1H36.17l-.87,4.87h7.87L42.27,46H34.4l-1.08,6.3h11.8l-.9,5.1H25.67Z"/><path class="cls-3" d="M49.77,30.9H56.7c.15,5.47.68,13.71.68,17.05.64-3,4.23-11.13,6.86-17.05h5.28C70,38,70.87,43.15,70.87,48.06c.86-4,3-9.25,6.11-17.16h7.19l-12,26.46h-6c-.63-6.67-1.38-12.11-1.38-16-.87,3.78-4.39,11.13-6.49,16H52.43Z"/><path class="cls-3" d="M98.3,45.59,91.6,30.9h7.45l3.6,9.67,6.9-9.67h7.68L105.09,45.59,103,57.36H96.24Z"/><path class="cls-3" d="M113.82,46.86C113.82,36,121,30.34,129,30.34c6.37,0,11.51,3.59,11.51,11.2,0,11.21-7.2,16.42-15.37,16.42C119.1,58,113.82,54.4,113.82,46.86Zm19.34-4.61c0-3.86-1.95-6.07-4.87-6.07-4.5,0-7.2,4-7.2,9.9,0,4.16,2.29,6,4.72,6C129.9,52.11,133.16,48.85,133.16,42.25Z"/><path class="cls-3" d="M145.45,30.9h9.75c5.73,0,10.08,1.76,10.08,7.08s-3.71,7.42-7.61,8.13a3.53,3.53,0,0,1,2.88,2.36l3.34,8.89h-7.57L154.37,51c-.71-2.29-2-2.55-3.82-2.55h-1.43l-1.57,8.92h-6.74Zm8.13,12.22c1.92,0,4.31-.72,4.31-4.35a2.69,2.69,0,0,0-3-2.77h-3.6l-1.24,7.12Z"/><path class="cls-3" d="M170.67,30.9h6.75l-1.87,10.6,9.89-10.6h7.94L182.71,41.65l6.44,15.71h-7.34l-4.16-11-3.6,3.64-1.28,7.31H166Z"/></g></g><g class="cls-2"><path class="cls-3" d="M4.65,30.9h7.23c2.4,7.27,4.42,12.89,5.36,17.43.67-5.93,1.76-11.85,2.7-17.43h6.29L21.59,57.36H14.35C12.48,51.58,9.59,43.49,9,40.08c-.71,6-1.76,11.69-2.66,17.28H0Z"/><path class="cls-3" d="M30.32,30.9h18l-.9,5.1H36.17l-.87,4.87h7.87L42.27,46H34.4l-1.08,6.3h11.8l-.9,5.1H25.67Z"/><path class="cls-3" d="M49.77,30.9H56.7c.15,5.47.68,13.71.68,17.05.64-3,4.23-11.13,6.86-17.05h5.28C70,38,70.87,43.15,70.87,48.06c.86-4,3-9.25,6.11-17.16h7.19l-12,26.46h-6c-.63-6.67-1.38-12.11-1.38-16-.87,3.78-4.39,11.13-6.49,16H52.43Z"/><path class="cls-3" d="M98.3,45.59,91.6,30.9h7.45l3.6,9.67,6.9-9.67h7.68L105.09,45.59,103,57.36H96.24Z"/><path class="cls-3" d="M113.82,46.86C113.82,36,121,30.34,129,30.34c6.37,0,11.51,3.59,11.51,11.2,0,11.21-7.2,16.42-15.37,16.42C119.1,58,113.82,54.4,113.82,46.86Zm19.34-4.61c0-3.86-1.95-6.07-4.87-6.07-4.5,0-7.2,4-7.2,9.9,0,4.16,2.29,6,4.72,6C129.9,52.11,133.16,48.85,133.16,42.25Z"/><path class="cls-3" d="M145.45,30.9h9.75c5.73,0,10.08,1.76,10.08,7.08s-3.71,7.42-7.61,8.13a3.53,3.53,0,0,1,2.88,2.36l3.34,8.89h-7.57L154.37,51c-.71-2.29-2-2.55-3.82-2.55h-1.43l-1.57,8.92h-6.74Zm8.13,12.22c1.92,0,4.31-.72,4.31-4.35a2.69,2.69,0,0,0-3-2.77h-3.6l-1.24,7.12Z"/><path class="cls-3" d="M170.67,30.9h6.75l-1.87,10.6,9.89-10.6h7.94L182.71,41.65l6.44,15.71h-7.34l-4.16-11-3.6,3.64-1.28,7.31H166Z"/></g><g class="cls-1"><g class="cls-2"><path class="cls-3" d="M7.27,15.25.56.56H8l3.6,9.67L18.51.56h7.68L14.05,15.25,12,27H5.21Z"/><path class="cls-3" d="M22.79,16.53C22.79,5.62,29.94,0,37.93,0c6.37,0,11.5,3.6,11.5,11.21,0,11.2-7.19,16.41-15.36,16.41C28.07,27.62,22.79,24.06,22.79,16.53Zm19.33-4.61c0-3.86-1.95-6.07-4.87-6.07-4.5,0-7.19,4-7.19,9.89,0,4.16,2.28,6,4.72,6C38.86,21.77,42.12,18.51,42.12,11.92Z"/><path class="cls-3" d="M54.42.56h6.74L58.61,15a27.31,27.31,0,0,0-.52,3.71c0,2.17,1.16,3,3.22,3,2.48,0,4-1,4.65-4.42l3-16.79h6.75l-3,17.17c-.75,4.27-2.36,9.89-12.25,9.89-7.57,0-9.26-3.82-9.26-7.2a15.92,15.92,0,0,1,.26-2.69Z"/><path class="cls-3" d="M84.29,5.66H77.13L78,.56H99.09l-.9,5.1H91L87.29,27H80.54Z"/><path class="cls-3" d="M101.42.56h6.74l-1.72,9.9h7.64l1.76-9.9h6.75L117.9,27h-6.74l2-11h-7.69l-1.91,11H96.77Z"/><path class="cls-3" d="M134.77.56H153l-.9,5.1H140.62l-1,5.77h7.84l-.9,5.1h-7.83L136.87,27h-6.75Z"/><path class="cls-3" d="M151.19,16.53C151.19,5.62,158.34,0,166.33,0c6.37,0,11.5,3.6,11.5,11.21,0,11.2-7.2,16.41-15.36,16.41C156.47,27.62,151.19,24.06,151.19,16.53Zm19.33-4.61c0-3.86-2-6.07-4.87-6.07-4.5,0-7.19,4-7.19,9.89,0,4.16,2.28,6,4.72,6C167.26,21.77,170.52,18.51,170.52,11.92Z"/><path class="cls-3" d="M182.82.56h9.74c5.73,0,10.08,1.76,10.08,7.08s-3.71,7.42-7.61,8.14a3.52,3.52,0,0,1,2.89,2.36L201.25,27h-7.57l-1.94-6.37c-.72-2.29-2-2.55-3.83-2.55h-1.42L184.92,27h-6.75ZM191,12.78c1.91,0,4.31-.71,4.31-4.35a2.69,2.69,0,0,0-3-2.77h-3.6l-1.23,7.12Z"/><path class="cls-3" d="M206.92.56h6.74L211.11,15a27.31,27.31,0,0,0-.52,3.71c0,2.17,1.16,3,3.22,3,2.47,0,4.05-1,4.65-4.42l3-16.79h6.74l-3,17.17c-.75,4.27-2.36,9.89-12.26,9.89-7.57,0-9.25-3.82-9.25-7.2a15.92,15.92,0,0,1,.26-2.69Z"/><path class="cls-3" d="M232.29.56h7.79c.94,4.72,2.48,12.56,2.55,14.5.75-1.94,5-9.66,7.61-14.5h7.64L253.24,27H246.9c1-5.77,2.48-14.13,3.23-16.86-1.2,2.88-6.08,10.9-9.41,16.86h-.6c-1.42-6.48-3.26-13.94-3.45-16.86-.22,2.77-1.76,11.28-2.7,16.86h-6.33Z"/></g></g><g class="cls-2"><path class="cls-3" d="M7.27,15.25.56.56H8l3.6,9.67L18.51.56h7.68L14.05,15.25,12,27H5.21Z"/><path class="cls-3" d="M22.79,16.53C22.79,5.62,29.94,0,37.93,0c6.37,0,11.5,3.6,11.5,11.21,0,11.2-7.19,16.41-15.36,16.41C28.07,27.62,22.79,24.06,22.79,16.53Zm19.33-4.61c0-3.86-1.95-6.07-4.87-6.07-4.5,0-7.19,4-7.19,9.89,0,4.16,2.28,6,4.72,6C38.86,21.77,42.12,18.51,42.12,11.92Z"/><path class="cls-3" d="M54.42.56h6.74L58.61,15a27.31,27.31,0,0,0-.52,3.71c0,2.17,1.16,3,3.22,3,2.48,0,4-1,4.65-4.42l3-16.79h6.75l-3,17.17c-.75,4.27-2.36,9.89-12.25,9.89-7.57,0-9.26-3.82-9.26-7.2a15.92,15.92,0,0,1,.26-2.69Z"/><path class="cls-3" d="M84.29,5.66H77.13L78,.56H99.09l-.9,5.1H91L87.29,27H80.54Z"/><path class="cls-3" d="M101.42.56h6.74l-1.72,9.9h7.64l1.76-9.9h6.75L117.9,27h-6.74l2-11h-7.69l-1.91,11H96.77Z"/><path class="cls-3" d="M134.77.56H153l-.9,5.1H140.62l-1,5.77h7.84l-.9,5.1h-7.83L136.87,27h-6.75Z"/><path class="cls-3" d="M151.19,16.53C151.19,5.62,158.34,0,166.33,0c6.37,0,11.5,3.6,11.5,11.21,0,11.2-7.2,16.41-15.36,16.41C156.47,27.62,151.19,24.06,151.19,16.53Zm19.33-4.61c0-3.86-2-6.07-4.87-6.07-4.5,0-7.19,4-7.19,9.89,0,4.16,2.28,6,4.72,6C167.26,21.77,170.52,18.51,170.52,11.92Z"/><path class="cls-3" d="M182.82.56h9.74c5.73,0,10.08,1.76,10.08,7.08s-3.71,7.42-7.61,8.14a3.52,3.52,0,0,1,2.89,2.36L201.25,27h-7.57l-1.94-6.37c-.72-2.29-2-2.55-3.83-2.55h-1.42L184.92,27h-6.75ZM191,12.78c1.91,0,4.31-.71,4.31-4.35a2.69,2.69,0,0,0-3-2.77h-3.6l-1.23,7.12Z"/><path class="cls-3" d="M206.92.56h6.74L211.11,15a27.31,27.31,0,0,0-.52,3.71c0,2.17,1.16,3,3.22,3,2.47,0,4.05-1,4.65-4.42l3-16.79h6.74l-3,17.17c-.75,4.27-2.36,9.89-12.26,9.89-7.57,0-9.25-3.82-9.25-7.2a15.92,15.92,0,0,1,.26-2.69Z"/><path class="cls-3" d="M232.29.56h7.79c.94,4.72,2.48,12.56,2.55,14.5.75-1.94,5-9.66,7.61-14.5h7.64L253.24,27H246.9c1-5.77,2.48-14.13,3.23-16.86-1.2,2.88-6.08,10.9-9.41,16.86h-.6c-1.42-6.48-3.26-13.94-3.45-16.86-.22,2.77-1.76,11.28-2.7,16.86h-6.33Z"/></g><g class="cls-2"><path class="cls-3" d="M60,100.23C70.37,96.59,90.5,87,90.5,77.39c0-3.38-1.86-5.07-4.82-5.07-4.91,0-7.19,4.06-9.05,8.29L63.69,77.14c3.21-9,10.91-15.06,23.77-15.06,11.16,0,19.19,4.74,19.19,14.3,0,12.94-15.73,18.69-25.28,21.65h23.34l-2.12,11.84H58.19Z"/><path class="cls-3" d="M110.2,90c0-11.76,8-27.92,26.65-27.92,15.56,0,20,9.9,20,20.13,0,11.08-5.5,29-27.06,29C115.87,111.22,110.2,100.74,110.2,90Zm30.62-7.79c0-3.38-.93-8.62-5-8.62C129,73.59,126,82.3,126,91.52c0,3.3,1.35,8.12,5.5,8.12C138.2,99.64,140.82,89.74,140.82,82.21Z"/><path class="cls-3" d="M172.2,80.1c-2.54,1.1-4.91,1.1-10.24,1.1l1.95-10.74c7.19,0,11.5-.93,14-7.11h11.33l-8.2,46.52H167Z"/><path class="cls-3" d="M200,68.85c0-11.16,10.07-16.92,22.08-16.92,9.22,0,17.84,4.49,17.84,14.21,0,7.11-5.75,11.76-11.75,13.37a11.43,11.43,0,0,1,9.22,11.67c0,13.95-12.27,20-24,20-10.48,0-19.79-4.48-19.79-16,0-8.12,5.25-14,14-15.73A11.09,11.09,0,0,1,200,68.85ZM222.69,90.5c0-3.8-2.12-6.43-6-6.43-5,0-8,4.32-8,9.39,0,3.64,2.37,6.52,6,6.52C220,100,222.69,96.08,222.69,90.5Zm-4.06-14.63c4.31,0,6.93-4.06,6.93-8.46,0-3.21-1.69-5.58-4.73-5.58-4.74,0-6.68,4-6.68,8.2C214.15,73.25,215.84,75.87,218.63,75.87Z"/></g><g class="cls-2"><path class="cls-3" d="M57.48,151.13a5.15,5.15,0,0,1-1.82-.31,4.19,4.19,0,0,1-1.43-.87,4,4,0,0,1-.94-1.34,4.44,4.44,0,0,1-.33-1.73,6.28,6.28,0,0,1,.43-2.34,6.09,6.09,0,0,1,1.2-1.93,5.7,5.7,0,0,1,1.85-1.31,5.63,5.63,0,0,1,2.34-.48,5.34,5.34,0,0,1,1.84.3A4.24,4.24,0,0,1,62,142a4.15,4.15,0,0,1,.94,1.35,4.31,4.31,0,0,1,.33,1.71,6.43,6.43,0,0,1-.43,2.37,5.68,5.68,0,0,1-3.05,3.23A5.64,5.64,0,0,1,57.48,151.13Zm4.36-6a3.6,3.6,0,0,0-.2-1.25,2.77,2.77,0,0,0-.62-1,2.87,2.87,0,0,0-1-.66,3.27,3.27,0,0,0-1.32-.25,3.69,3.69,0,0,0-1.69.39,4.17,4.17,0,0,0-1.34,1.05,5.22,5.22,0,0,0-.89,1.54,5.13,5.13,0,0,0-.32,1.84,3.9,3.9,0,0,0,.2,1.25,2.86,2.86,0,0,0,.62,1,2.92,2.92,0,0,0,1,.66,3.4,3.4,0,0,0,1.31.24,3.85,3.85,0,0,0,1.73-.39,4.28,4.28,0,0,0,1.34-1,4.67,4.67,0,0,0,.88-1.52A5.5,5.5,0,0,0,61.84,145.15Z"/><path class="cls-3" d="M67,142.2c.07-.42.11-.79.14-1.13h1.34c0,.27-.06.56-.11.88s-.08.59-.12.8h0a4.5,4.5,0,0,1,1.38-1.4,3.5,3.5,0,0,1,1.89-.53l.48,0a3.73,3.73,0,0,1,.44.08l-.33,1.35a1.89,1.89,0,0,0-.39-.09,5.46,5.46,0,0,0-.58,0,3.12,3.12,0,0,0-1.11.21,2.87,2.87,0,0,0-1,.66,4.41,4.41,0,0,0-.8,1.15,6.13,6.13,0,0,0-.51,1.69l-.88,5H65.49l1.34-7.65C66.89,143,67,142.62,67,142.2Z"/><path class="cls-3" d="M72.64,152.94a4,4,0,0,0,1.48,1.24,4.44,4.44,0,0,0,2.08.5,4.93,4.93,0,0,0,1.81-.31,3.36,3.36,0,0,0,1.25-.84,4.08,4.08,0,0,0,.8-1.23,7.24,7.24,0,0,0,.44-1.5l.36-1.87h0a4.72,4.72,0,0,1-1.64,1.45,4.52,4.52,0,0,1-2.1.5,4.94,4.94,0,0,1-1.81-.32,4,4,0,0,1-1.37-.91,4.1,4.1,0,0,1-.87-1.37,4.63,4.63,0,0,1-.31-1.7,6,6,0,0,1,.43-2.24,5.7,5.7,0,0,1,1.2-1.83,5.46,5.46,0,0,1,1.81-1.24,5.74,5.74,0,0,1,2.29-.45,4.12,4.12,0,0,1,1,.13,4,4,0,0,1,1,.37,3.78,3.78,0,0,1,.81.62,3.11,3.11,0,0,1,.56.83h0l.32-1.7h1.38l-1.72,9.73a11.88,11.88,0,0,1-.44,1.7,5,5,0,0,1-.91,1.65,4.81,4.81,0,0,1-1.64,1.26,6.06,6.06,0,0,1-2.67.5,6.38,6.38,0,0,1-2.62-.52,4.73,4.73,0,0,1-1.88-1.45Zm1.53-6.33a3.43,3.43,0,0,0,.21,1.19,2.93,2.93,0,0,0,.61,1,2.76,2.76,0,0,0,1,.67,3.52,3.52,0,0,0,1.34.24,4,4,0,0,0,1.73-.37,4.22,4.22,0,0,0,1.36-1,4.78,4.78,0,0,0,.88-1.46,4.89,4.89,0,0,0,.31-1.75,3.39,3.39,0,0,0-.22-1.23,3,3,0,0,0-.63-1,2.89,2.89,0,0,0-1-.67,3.34,3.34,0,0,0-1.32-.26,4.41,4.41,0,0,0-1.73.34,3.79,3.79,0,0,0-1.35.93,4.33,4.33,0,0,0-.87,1.46A5.67,5.67,0,0,0,74.17,146.61Z"/><path class="cls-3" d="M93,144.87l.09-.56c0-.13,0-.25,0-.37a1.77,1.77,0,0,0-.61-1.51,2.89,2.89,0,0,0-1.7-.44,4.35,4.35,0,0,0-1.7.35,5,5,0,0,0-1.36.83l-.63-.95a5.76,5.76,0,0,1,1.76-1,5.93,5.93,0,0,1,2.08-.39,5.32,5.32,0,0,1,1.33.16,3,3,0,0,1,1.11.5,2.47,2.47,0,0,1,.75.88,2.73,2.73,0,0,1,.29,1.29c0,.13,0,.3,0,.51a4.84,4.84,0,0,1-.07.54l-.71,4c-.07.38-.12.77-.17,1.17s-.06.75-.06,1H92.09c0-.24,0-.49,0-.77s.06-.56.1-.82h0a7.26,7.26,0,0,1-.84.83,4.08,4.08,0,0,1-.87.55,4.23,4.23,0,0,1-1,.31,6.43,6.43,0,0,1-1.12.09,4,4,0,0,1-1-.13,2.6,2.6,0,0,1-1-.43,2.54,2.54,0,0,1-.71-.78,2.32,2.32,0,0,1-.28-1.2,2.65,2.65,0,0,1,.67-1.89,4.32,4.32,0,0,1,1.75-1.11,10,10,0,0,1,2.42-.53A26.82,26.82,0,0,1,93,144.87Zm-.52,1.06c-.63,0-1.27,0-1.93.1a7.88,7.88,0,0,0-1.79.36,3.36,3.36,0,0,0-1.32.73,1.77,1.77,0,0,0-.35,2,1.23,1.23,0,0,0,.45.48,2,2,0,0,0,.65.26,4.65,4.65,0,0,0,.75.07,3.85,3.85,0,0,0,1.38-.25,3.71,3.71,0,0,0,1.11-.69,4.15,4.15,0,0,0,.8-1,4.41,4.41,0,0,0,.44-1.23l.14-.82Z"/><path class="cls-3" d="M99.89,141.07c0,.27-.06.56-.1.88s-.09.59-.13.8h0a4.31,4.31,0,0,1,1.46-1.42,3.8,3.8,0,0,1,1.91-.51,3.59,3.59,0,0,1,2.49.81,2.83,2.83,0,0,1,.89,2.19,4.19,4.19,0,0,1,0,.5c0,.17,0,.35-.07.55l-1.09,6h-1.41l1-5.43a6.73,6.73,0,0,0,.12-1.23,2.53,2.53,0,0,0-.48-1.63,2.07,2.07,0,0,0-1.7-.6,3,3,0,0,0-1.13.23,3.44,3.44,0,0,0-1.06.72,4.64,4.64,0,0,0-.87,1.2,5.73,5.73,0,0,0-.54,1.71l-.88,5H96.87l1.34-7.65c.06-.26.12-.61.18-1s.11-.79.14-1.13Z"/><path class="cls-3" d="M110.39,150.88H109l1.74-9.81h1.4Zm2.58-13.6a1,1,0,0,1-.28.71.94.94,0,0,1-.71.29,1,1,0,0,1-.68-.25.91.91,0,0,1-.28-.69,1,1,0,0,1,.3-.73,1,1,0,0,1,.71-.3.92.92,0,0,1,.94,1Z"/><path class="cls-3" d="M122.28,142.08l-7.21,7.57h6.08l-.21,1.23h-8l.17-1,7.19-7.62h-5.56l.23-1.18h7.47Z"/><path class="cls-3" d="M124.9,146.35a1.13,1.13,0,0,0,0,.25,1.62,1.62,0,0,0,0,.22,3.22,3.22,0,0,0,.24,1.26,3.07,3.07,0,0,0,1.67,1.65A3.43,3.43,0,0,0,128,150a3.85,3.85,0,0,0,2-.51,4.87,4.87,0,0,0,1.39-1.21l.88.84a5.73,5.73,0,0,1-2,1.54,5.84,5.84,0,0,1-2.42.51,5.12,5.12,0,0,1-1.76-.29,4.16,4.16,0,0,1-1.41-.84,3.77,3.77,0,0,1-.94-1.35,4.46,4.46,0,0,1-.35-1.83,6.16,6.16,0,0,1,1.65-4.2,5.92,5.92,0,0,1,1.8-1.31,5.09,5.09,0,0,1,2.23-.49,4.07,4.07,0,0,1,3,1.07,3.8,3.8,0,0,1,1,2.77c0,.16,0,.42,0,.76a5.84,5.84,0,0,1-.15.93Zm6.85-1a2.22,2.22,0,0,0,0-.37c0-.13,0-.26,0-.37a2.57,2.57,0,0,0-.69-1.85,2.69,2.69,0,0,0-2-.73,3.77,3.77,0,0,0-1.44.27,3.7,3.7,0,0,0-1.17.72,4.69,4.69,0,0,0-.87,1.06,4,4,0,0,0-.5,1.27Z"/><path class="cls-3" d="M135.29,146.9a6.65,6.65,0,0,1,.43-2.37,5.9,5.9,0,0,1,1.21-1.93,6,6,0,0,1,1.83-1.3,5.51,5.51,0,0,1,2.3-.48,4.31,4.31,0,0,1,2,.48,3.27,3.27,0,0,1,1.42,1.43h0l1.36-7.69h1.4l-2.8,15.84h-1.41l.29-1.61h0a4.1,4.1,0,0,1-1.44,1.31,4.29,4.29,0,0,1-2.16.55,5.22,5.22,0,0,1-1.82-.3,3.9,3.9,0,0,1-2.29-2.21A4.54,4.54,0,0,1,135.29,146.9Zm1.47-.09a3.79,3.79,0,0,0,.2,1.24,2.87,2.87,0,0,0,1.56,1.67,3.38,3.38,0,0,0,1.32.24,4,4,0,0,0,1.72-.38,4.41,4.41,0,0,0,1.39-1,5,5,0,0,0,1.25-3.37,3.46,3.46,0,0,0-.22-1.27,2.85,2.85,0,0,0-1.64-1.67A3.42,3.42,0,0,0,141,142a4,4,0,0,0-1.75.38,4,4,0,0,0-1.35,1,4.52,4.52,0,0,0-.87,1.53A5.45,5.45,0,0,0,136.76,146.81Z"/><path class="cls-3" d="M155.38,149.23l-.3,1.65h-1.4L156.49,135h1.4l-1.36,7.63h0a3.12,3.12,0,0,1,.61-.72,4,4,0,0,1,.85-.58,4.55,4.55,0,0,1,2.14-.55,5.18,5.18,0,0,1,1.82.3,4.2,4.2,0,0,1,1.39.87,3.9,3.9,0,0,1,.9,1.35,4.49,4.49,0,0,1,.32,1.71,6.44,6.44,0,0,1-.44,2.37,6.14,6.14,0,0,1-1.21,1.93,5.66,5.66,0,0,1-1.82,1.3,5.51,5.51,0,0,1-2.3.48,4.46,4.46,0,0,1-1-.12,4.61,4.61,0,0,1-1-.37,3.52,3.52,0,0,1-.83-.6,2.7,2.7,0,0,1-.57-.81Zm7.75-4.08a3.78,3.78,0,0,0-.2-1.23,2.72,2.72,0,0,0-.6-1,2.64,2.64,0,0,0-1-.67,3.21,3.21,0,0,0-1.32-.25,4,4,0,0,0-1.72.38,4.26,4.26,0,0,0-1.38,1A5.19,5.19,0,0,0,156,145a5.13,5.13,0,0,0-.33,1.84,3.49,3.49,0,0,0,.22,1.27,2.87,2.87,0,0,0,1.63,1.67,3.64,3.64,0,0,0,1.31.23,4,4,0,0,0,1.75-.38,4.05,4.05,0,0,0,1.36-1,4.83,4.83,0,0,0,.87-1.52A5.74,5.74,0,0,0,163.13,145.15Z"/><path class="cls-3" d="M170,149.33h0l4.78-8.26h1.57L169,153.42a8.46,8.46,0,0,1-1.43,1.81,2.54,2.54,0,0,1-1.82.68,6,6,0,0,1-1.2-.12l.21-1.3a2.77,2.77,0,0,0,.93.17,1.68,1.68,0,0,0,1.16-.46,5.39,5.39,0,0,0,1-1.28l1.22-2.06L167,141.07h1.46Z"/></g><polygon class="cls-3" points="236.29 121.35 56.39 121.35 55.49 126.55 235.39 126.55 236.29 121.35"/><g id="Layer_2-2" data-name="Layer 2"><g id="Layer_1-2-2" data-name="Layer 1-2"><path class="cls-3" d="M116.49,161.65c.3,0,.7-.1.9-.1s.6-.1.8-.1a2.77,2.77,0,0,0,.9-.1h1a19.42,19.42,0,0,1,2.4.2,6,6,0,0,1,2.1.8,4.63,4.63,0,0,1,1.5,1.6,4.87,4.87,0,0,1,.6,2.5,5.08,5.08,0,0,1-.3,1.7,5.67,5.67,0,0,1-.8,1.3,5.24,5.24,0,0,1-1.1,1,7.46,7.46,0,0,1-1.2.7l-.3.1,4.9,7.1a7.08,7.08,0,0,1-1.4.1,6.15,6.15,0,0,1-1.3-.1l-5.4-7.8v-.1h.2c.5-.1.9-.3,1.3-.4a5.39,5.39,0,0,0,1.3-.7,5.24,5.24,0,0,0,1-1.1,3.54,3.54,0,0,0-.6-4.1,4.55,4.55,0,0,0-2.7-.8h-.7a2.49,2.49,0,0,0-.8.1v15.1H117a1.27,1.27,0,0,1-.6-.1v-16.8Z"/><path class="cls-3" d="M130.09,166.55c.2,0,.4-.1.6-.1h1.2a1.27,1.27,0,0,1,.6.1v6.6a12.25,12.25,0,0,0,.2,1.9,3.38,3.38,0,0,0,.6,1.2,2.07,2.07,0,0,0,1,.6,6.75,6.75,0,0,0,1.4.2,6.45,6.45,0,0,0,2-.3v-10.1c.2,0,.4-.1.6-.1h1.2a1.27,1.27,0,0,1,.6.1v11.7a8.78,8.78,0,0,1-2,.4,19.42,19.42,0,0,1-2.4.2,16.35,16.35,0,0,1-2.2-.2,3.7,3.7,0,0,1-1.8-.8,3.82,3.82,0,0,1-1.2-1.7,7.78,7.78,0,0,1-.4-2.9v-6.8Z"/><path class="cls-3" d="M143.49,176.45a7.17,7.17,0,0,0,2.9.6,3.4,3.4,0,0,0,1-.1,3.55,3.55,0,0,0,.9-.4,1.7,1.7,0,0,0,.6-.6,1.88,1.88,0,0,0,.2-.8,2.35,2.35,0,0,0-.2-.8,1.21,1.21,0,0,0-.5-.5,4.35,4.35,0,0,0-.7-.4c-.3-.1-.5-.2-.8-.3l-.8-.3a6.38,6.38,0,0,1-2.2-1.3,2.49,2.49,0,0,1-.7-1.9,3.25,3.25,0,0,1,1.1-2.5,5.39,5.39,0,0,1,3.3-.9,11,11,0,0,1,1.8.2,8.33,8.33,0,0,1,1.5.4,2.92,2.92,0,0,1-.2.9l-.3.9c-.4-.1-.8-.3-1.2-.4a7.72,7.72,0,0,0-1.5-.2,3.65,3.65,0,0,0-1.5.3,1.23,1.23,0,0,0-.7,1.1,1,1,0,0,0,.2.7,2.18,2.18,0,0,0,.4.5c.2.1.4.3.6.3a6.89,6.89,0,0,0,.8.3l1,.4c.4.1.7.3,1.1.4l.9.6a2.36,2.36,0,0,1,.6.9,4.12,4.12,0,0,1-.1,2.9,2.94,2.94,0,0,1-1,1.2,4.81,4.81,0,0,1-1.6.8,7.47,7.47,0,0,1-2,.3,6.8,6.8,0,0,1-2-.2,9.36,9.36,0,0,1-1.6-.4,2.92,2.92,0,0,1,.2-.9A1.37,1.37,0,0,0,143.49,176.45Z"/><path class="cls-3" d="M153.59,176.45a7.17,7.17,0,0,0,2.9.6,3.4,3.4,0,0,0,1-.1,3.55,3.55,0,0,0,.9-.4,1.7,1.7,0,0,0,.6-.6,1.88,1.88,0,0,0,.2-.8,2.35,2.35,0,0,0-.2-.8,1.21,1.21,0,0,0-.5-.5,4.35,4.35,0,0,0-.7-.4c-.3-.1-.5-.2-.8-.3l-.8-.3a6.38,6.38,0,0,1-2.2-1.3,2.49,2.49,0,0,1-.7-1.9,3.25,3.25,0,0,1,1.1-2.5,5.39,5.39,0,0,1,3.3-.9,11,11,0,0,1,1.8.2,8.33,8.33,0,0,1,1.5.4,2.92,2.92,0,0,1-.2.9l-.3.9c-.4-.1-.8-.3-1.2-.4a7.72,7.72,0,0,0-1.5-.2,3.65,3.65,0,0,0-1.5.3,1.23,1.23,0,0,0-.7,1.1,1.85,1.85,0,0,0,.2.7,2.18,2.18,0,0,0,.4.5c.2.1.4.3.6.3a6.89,6.89,0,0,0,.8.3l1,.4c.4.1.7.3,1.1.4l.9.6a2.36,2.36,0,0,1,.6.9,4.12,4.12,0,0,1-.1,2.9,2.94,2.94,0,0,1-1,1.2,4.81,4.81,0,0,1-1.6.8,7.47,7.47,0,0,1-2,.3,6.8,6.8,0,0,1-2-.2,9.36,9.36,0,0,1-1.6-.4,2.92,2.92,0,0,1,.2-.9A1.37,1.37,0,0,0,153.59,176.45Z"/><path class="cls-3" d="M165.19,168.35h-1.5c0-.1-.1-.3-.1-.4v-1a.6.6,0,0,1,.1-.4h3.8v12.1c-.2,0-.4.1-.6.1h-1.2a1.27,1.27,0,0,1-.6-.1Zm-.5-4.4c0-.2-.1-.4-.1-.6v-1.2a1.27,1.27,0,0,1,.1-.6c.2,0,.4-.1.7-.1h1.2a1.27,1.27,0,0,1,.6.1c0,.2.1.4.1.6v1.2a1.27,1.27,0,0,1-.1.6c-.2,0-.4.1-.6.1h-1.2a2,2,0,0,0-.7-.1Z"/><path class="cls-3" d="M177.59,170.65a2.11,2.11,0,0,0-.7-1.9,3.94,3.94,0,0,0-2-.5,7.57,7.57,0,0,0-1.5.1l-1.4.3a3.13,3.13,0,0,1-.4-1.9,11.63,11.63,0,0,1,1.8-.4,11.48,11.48,0,0,1,1.9-.1,5.34,5.34,0,0,1,3.6,1.1,4.25,4.25,0,0,1,1.2,3.4v7.5c-.5.1-1.2.3-2,.4a19.42,19.42,0,0,1-2.4.2,14.92,14.92,0,0,1-2.1-.2,3.29,3.29,0,0,1-1.6-.7,2.94,2.94,0,0,1-1-1.2,5.84,5.84,0,0,1-.4-1.8,3.44,3.44,0,0,1,1.5-3,8,8,0,0,1,1.6-.8,4.13,4.13,0,0,1,1.9-.2h1.2c.3,0,.6.1.8.1Zm0,2.3c-.2,0-.5-.1-.9-.1h-.9a4.2,4.2,0,0,0-2.2.5,1.94,1.94,0,0,0-.8,1.6,2,2,0,0,0,.3,1.1,1.34,1.34,0,0,0,.7.6l.9.3h.9a4.1,4.1,0,0,0,1.1-.1,3.55,3.55,0,0,0,1-.2Z"/><path class="cls-3" d="M183.39,166.55c.2,0,.3-.1.5-.1h1a1.09,1.09,0,0,1,.5.1c0,.2.1.6.1.9s.1.7.1,1c.2-.3.4-.5.6-.8a5,5,0,0,1,.8-.7,4.2,4.2,0,0,1,2.4-.7,3.85,3.85,0,0,1,3.1,1.2,5.22,5.22,0,0,1,1,3.5v7.6c-.2,0-.4.1-.6.1h-1.2a1.27,1.27,0,0,1-.6-.1v-7a5.51,5.51,0,0,0-.5-2.5,1.82,1.82,0,0,0-1.6-.8,5,5,0,0,0-1.2.2,3.59,3.59,0,0,0-1,.7,3.29,3.29,0,0,0-.7,1.3,6.28,6.28,0,0,0-.3,1.9v6.1c-.2,0-.4.1-.6.1H184a1.27,1.27,0,0,1-.6-.1Z"/><path class="cls-3" d="M149,189.35l.3.6a2.2,2.2,0,0,1,.1.8,6.9,6.9,0,0,1-2.5.4,4.46,4.46,0,0,1-3.5-1.3,5.13,5.13,0,0,1-1.2-3.5,5.82,5.82,0,0,1,.3-1.9,3.77,3.77,0,0,1,.9-1.5,4.48,4.48,0,0,1,3.4-1.4,5.7,5.7,0,0,1,1.3.1l1.1.3a1.7,1.7,0,0,1-.1.7,1.85,1.85,0,0,1-.2.7,6.93,6.93,0,0,0-2-.3,2.58,2.58,0,0,0-2.1.9,3.73,3.73,0,0,0-.7,2.5,3.84,3.84,0,0,0,.8,2.6,2.86,2.86,0,0,0,2.1.8,3.4,3.4,0,0,0,1-.1A6.89,6.89,0,0,1,149,189.35Z"/><path class="cls-3" d="M152.49,186.75a2.79,2.79,0,0,0,.8,2.2,2.92,2.92,0,0,0,2.2.7,5.59,5.59,0,0,0,2.5-.5,1.45,1.45,0,0,1,.2.7,2.2,2.2,0,0,1,.1.8,6.47,6.47,0,0,1-1.3.4,8.6,8.6,0,0,1-1.6.1,5.7,5.7,0,0,1-2.2-.4,3.07,3.07,0,0,1-1.5-1,4.62,4.62,0,0,1-.9-1.5,6.28,6.28,0,0,1-.3-1.9,5.82,5.82,0,0,1,.3-1.9,4.81,4.81,0,0,1,.8-1.6,5.26,5.26,0,0,1,1.4-1.1,4.48,4.48,0,0,1,2-.4,4.67,4.67,0,0,1,1.7.3,2.73,2.73,0,0,1,1.2.9,3.69,3.69,0,0,1,.7,1.4,5.08,5.08,0,0,1,.3,1.7v1Zm4.7-1.4a3.4,3.4,0,0,0-.1-1,2,2,0,0,0-.4-.8,4.35,4.35,0,0,0-.7-.6,3,3,0,0,0-1-.2,2.06,2.06,0,0,0-1.7.7,3.3,3.3,0,0,0-.7,1.9Z"/><path class="cls-3" d="M161.29,181.65a.6.6,0,0,0,.4-.1h.8a.76.76,0,0,1,.4.1c0,.2.1.4.1.7s.1.5.1.8a2.65,2.65,0,0,1,.5-.6l.6-.6a3.29,3.29,0,0,1,1.9-.6,3.09,3.09,0,0,1,2.4.9,3.64,3.64,0,0,1,.7,2.7v5.9a.9.9,0,0,0-.5.1h-.9a.6.6,0,0,1-.4-.1v-5.4a3.16,3.16,0,0,0-.4-1.9,1.49,1.49,0,0,0-1.3-.6,3.55,3.55,0,0,0-1,.2,1.56,1.56,0,0,0-.8.6,3.33,3.33,0,0,0-.6,1,7.72,7.72,0,0,0-.2,1.5V191a.6.6,0,0,0-.4.1h-.9a.9.9,0,0,1-.5-.1Z"/><path class="cls-3" d="M172.09,183.05h-1.4l-.1-.3,3.1-3.5h.1v2.3h2.4a1.7,1.7,0,0,1,.1.7v.4a.76.76,0,0,1-.1.4h-2.4v4.2a4.87,4.87,0,0,0,.1,1.2,1.85,1.85,0,0,0,.2.7c.1.2.2.3.4.3a1.48,1.48,0,0,0,.7.1h.6c.2,0,.3-.1.5-.1.1.2.1.5.2.7v.7a2.2,2.2,0,0,1-.8.1h-.9a2.81,2.81,0,0,1-2-.6,2.54,2.54,0,0,1-.7-2.1v-5.2Z"/><path class="cls-3" d="M179.59,186.75a2.79,2.79,0,0,0,.8,2.2,2.92,2.92,0,0,0,2.2.7,5.59,5.59,0,0,0,2.5-.5,1.45,1.45,0,0,1,.2.7,2.2,2.2,0,0,1,.1.8,6.47,6.47,0,0,1-1.3.4,8.6,8.6,0,0,1-1.6.1,5.7,5.7,0,0,1-2.2-.4,4.23,4.23,0,0,1-2.4-2.5,6.28,6.28,0,0,1-.3-1.9,5.82,5.82,0,0,1,.3-1.9,4.81,4.81,0,0,1,.8-1.6,5.26,5.26,0,0,1,1.4-1.1,4.48,4.48,0,0,1,2-.4,4.67,4.67,0,0,1,1.7.3,2.73,2.73,0,0,1,1.2.9,3.69,3.69,0,0,1,.7,1.4,5.08,5.08,0,0,1,.3,1.7v1Zm4.7-1.4a3.4,3.4,0,0,0-.1-1,2,2,0,0,0-.4-.8,4.35,4.35,0,0,0-.7-.6,3,3,0,0,0-1-.2,2.06,2.06,0,0,0-1.7.7,3.3,3.3,0,0,0-.7,1.9Z"/><path class="cls-3" d="M188.39,181.65a.6.6,0,0,0,.4-.1h.8a.76.76,0,0,1,.4.1c0,.2.1.4.1.7s.1.5.1.8a5.24,5.24,0,0,1,1-1.1,3,3,0,0,1,1.6-.5h.6a.37.37,0,0,0,.1.3v.9a.9.9,0,0,1-.1.5h-.5a2.77,2.77,0,0,0-.9.1,2.18,2.18,0,0,0-.8.5,4.7,4.7,0,0,0-.6.9,3.89,3.89,0,0,0-.2,1.5v4.6a.6.6,0,0,0-.4.1h-.8a.9.9,0,0,1-.5-.1Z"/><path class="cls-3" d="M211.09,166.35v24.9h-5.3l-3.1-11.3v11.3h-5v-24.9h5l3.4,11.2v-11.2Z"/><path class="cls-3" d="M226.29,166.35l-4.4,15.9v9h-5.6v-9l-4.2-15.9h5.6c.9,4.9,1.4,8.1,1.5,9.8.3-2.7.9-5.9,1.7-9.8Z"/></g></g></g></g></svg>